<?xml version="1.0" standalone="no"?>
<!DOCTYPE svg PUBLIC "-//W3C//DTD SVG 20010904//EN"
 "http://www.w3.org/TR/2001/REC-SVG-20010904/DTD/svg10.dtd">
<svg version="1.0" xmlns="http://www.w3.org/2000/svg"
 width="517.000000pt" height="429.000000pt" viewBox="0 0 517.000000 429.000000"
 preserveAspectRatio="xMidYMid meet">
<metadata>
Created by potrace 1.16, written by Peter Selinger 2001-2019
</metadata>
<g transform="translate(0.000000,429.000000) scale(0.100000,-0.100000)"
fill="#000000" stroke="none">
<path d="M867 3884 c-1 -2 1 -58 6 -126 4 -68 5 -152 2 -188 -2 -36 -5 -125
-6 -199 -1 -135 -1 -135 126 -134 128 2 128 2 126 180 -1 98 -3 187 -4 198 -2
19 5 20 173 22 140 1 174 4 171 15 -2 7 -5 63 -6 123 -3 110 -3 110 -294 110
-161 0 -293 0 -294 -1z"/>
<path d="M1640 3883 c-1 -4 -2 -64 -3 -132 -2 -124 -2 -124 102 -117 57 3 258
6 445 6 341 0 341 0 340 122 -2 123 -2 123 -443 126 -242 2 -441 -1 -441 -5z"/>
<path d="M2755 3764 c0 -124 0 -124 440 -126 242 -2 441 -2 443 -1 2 1 0 57
-3 125 -7 123 -7 123 -444 125 -436 1 -436 1 -436 -123z"/>
<path d="M3831 3876 c-5 -6 -5 -20 0 -31 12 -30 11 -173 -2 -180 -5 -4 -8 -12
-7 -17 3 -7 64 -10 176 -9 136 2 172 -1 173 -11 1 -7 0 -100 0 -205 -2 -193
-2 -193 130 -193 131 0 131 0 125 23 -3 12 -6 159 -6 327 0 305 0 305 -290
306 -200 1 -293 -2 -299 -10z"/>
<path d="M1757 2540 c3 -474 3 -474 40 -485 117 -35 232 -135 283 -247 28 -59
34 -86 38 -163 8 -158 -47 -292 -155 -380 -35 -27 -76 -69 -93 -92 -17 -23
-52 -57 -78 -74 -68 -46 -229 -138 -279 -160 -43 -18 -43 -18 -43 -134 0 -116
0 -116 38 -108 20 4 546 7 1167 8 1130 0 1130 0 1130 112 0 111 0 111 -55 138
-78 38 -245 149 -312 207 -66 57 -146 154 -176 214 -69 135 -69 343 -1 477 12
23 54 75 92 115 60 61 88 81 181 127 120 58 276 107 408 126 46 7 87 16 92 20
4 4 10 121 11 261 4 302 20 407 57 370 23 -23 38 -540 16 -587 -15 -34 -10
-37 37 -20 22 7 108 23 190 35 83 11 185 28 229 36 43 7 94 14 113 14 32 0 35
2 28 23 -11 37 -17 447 -8 541 6 61 6 89 -1 92 -6 1 -672 4 -1481 6 l-1470 3
2 -475z"/>
<path d="M1354 2999 c-2 -4 1 -21 7 -38 12 -34 6 -820 -6 -879 -7 -33 -7 -33
26 -27 19 3 78 7 132 8 97 2 97 2 95 470 -3 469 -3 469 -126 470 -68 1 -126
-1 -128 -4z"/>
<path d="M170 2991 c0 -11 212 -230 311 -320 390 -359 506 -442 674 -487 55
-14 103 -27 108 -28 4 0 8 182 10 407 2 407 2 407 -143 407 -79 0 -217 4 -305
10 -157 10 -655 18 -655 11z"/>
<path d="M985 1826 c-110 -12 -129 -19 -120 -45 6 -20 8 -352 6 -1041 -1 -323
2 -475 9 -474 5 1 135 2 288 3 278 1 278 1 280 122 3 120 3 120 -158 118 -88
-1 -163 1 -167 5 -5 4 -8 304 -8 667 0 580 -2 659 -15 657 -8 0 -60 -6 -115
-12z"/>
<path d="M4375 1833 c-11 -2 -63 -7 -115 -11 -93 -7 -95 -7 -93 -32 1 -14 2
-308 3 -655 2 -630 2 -630 -32 -629 -301 9 -303 9 -300 -12 2 -10 5 -66 7
-124 4 -102 5 -105 27 -103 13 0 141 2 285 3 262 2 262 2 263 764 0 418 2 770
3 781 2 20 -12 26 -48 18z"/>
<path d="M1627 394 c1 -117 1 -117 447 -118 446 -1 446 -1 446 114 0 115 0
115 -447 119 -448 3 -448 3 -446 -115z"/>
<path d="M2755 392 c0 -119 0 -119 452 -120 453 -1 453 -1 450 119 -2 119 -2
119 -452 119 -450 0 -450 0 -450 -118z"/>
</g>
</svg>
